<?xml version="1.0" encoding="UTF-8"?>
<svg id="Calque_1" data-name="Calque 1" xmlns="http://www.w3.org/2000/svg" viewBox="0 0 117.71 113.44">
  <defs>
    <style>
      .cls-1 {
        fill: #fff;
        stroke-width: 0px;
      }
    </style>
  </defs>
  <path class="cls-1" d="M64.18,65.28c10.59.4,19.66,2.22,28.77,3.73,1.42.23,2.81.75,4.14,1.31,3.79,1.61,4.12,3.25,1.53,6.61-3.31,4.3-7.31,6.67-13.07,6.01-18.58-2.12-37.24-2.53-55.92-2.11-.54.01-1.09,0-1.63-.06-1.08-.11-2.32-.16-2.7-1.4-.47-1.51.56-2.47,1.78-2.94,12.47-4.82,24.61-10.81,37.09-11.17Z"/>
  <path class="cls-1" d="M80.5,43.68c4.7-.03,6.27,2.12,4.42,6.56-2.27,5.44-5.77,9.64-12.15,10.32-1.97.21-3.95.54-5.93.53-7.12-.02-14.05.95-20.79,3.3-2.04.71-4.14,1.41-6.36.97-1.34-.27-2.33-1.01-2.67-2.39-.38-1.49.45-2.42,1.67-3.03,2.27-1.13,4.52-2.29,6.85-3.27,8.84-3.71,17.71-7.36,26.57-11.01,2.69-1.11,5.44-1.99,8.4-1.99Z"/>
  <path class="cls-1" d="M71.05,36.52c-.86,2.84-2.95,5.44-5.4,7.54-2.49,2.13-5.78,3.1-8.98,3.7-2.99.57-5.98-2.8-5.26-6.03,1.08-4.82,3.72-9.04,6.04-13.36.46-.86,1.38-1.32,2.32-1.06,4.05,1.15,8.03,2.46,10.54,6.23.51.77.91,1.57.74,2.97Z"/>
</svg>