<?xml version="1.0" encoding="UTF-8"?>
<svg id="Calque_1" data-name="Calque 1" xmlns="http://www.w3.org/2000/svg" viewBox="0 0 117.71 113.44">
  <defs>
    <style>
      .cls-1 {
        fill: #fff;
        stroke-width: 0px;
      }
    </style>
  </defs>
  <path class="cls-1" d="M64.65,72.66c1.15-2.74,4.29-4.41,6.76-2.84,3.28,2.08,5.4,6.97,7.81,9.93,2.27,2.79,7.8,7,7.63,11.01-.42,9.9-12.1,1.13-14.77-1.84-3.05-3.39-9.57-11.14-7.43-16.25Z"/>
  <path class="cls-1" d="M54.91,82.68c-.67.4-1.39.69-2.17.57-1.42-.23-1.75-.88-2.52-1.94-1.51-2.1-.98-5.54-.99-7.85,0-5.06-.47-17.84,2.94-21.45,3.83-4.06,11.45-1.61,16.12-.9,5.09.77,13.34,1.09,14.56,7.16,2.27,11.24-19.34,19.24-26.21,23.27-.54.32-1.12.78-1.73,1.14Z"/>
  <path class="cls-1" d="M65.85,40.52c3.17-.96,10.58-15.96,11.21-18.55.78-3.2-.05-5.56-3.43-3.08-3.23,2.37-5.05,6.83-6.5,10.42-.87,2.14-4.6,9.29-2,11.13.2.14.45.17.72.08Z"/>
  <path class="cls-1" d="M51.98,40c.87-5.95-.4-16.38-2.91-20.94-1.58-2.88-3.85-2.57-4.47,2.45-.54,4.34,3.61,22.48,7.38,18.49Z"/>
  <path class="cls-1" d="M39.04,45.24c-1.79-2-5.34-4.04-6.15-4.55-1.61-1.02-17.63-7.02-13.58-.33,2.13,3.52,9.93,5.34,13.48,7.17,1.5.77,4.79,1.98,6.4,1.05,1.42-.83.99-2.07-.15-3.33Z"/>
</svg>