<?xml version="1.0" encoding="UTF-8"?>
<svg id="Calque_1" data-name="Calque 1" xmlns="http://www.w3.org/2000/svg" viewBox="0 0 117.71 113.44">
  <defs>
    <style>
      .cls-1 {
        fill: #fff;
        stroke-width: 0px;
      }
    </style>
  </defs>
  <path class="cls-1" d="M25.26,87.46c-.18-3.61,1.18-6.4,3.52-8.96,5.64-6.16,11.15-12.43,16.68-18.68,2.73-3.08,2.7-3.1.22-6.38-5.58-7.38-11.07-14.84-16.79-22.11-2.67-3.39-2.81-6.89-1.74-10.78.57-2.09,1.64-2.91,3.92-2.73,7.87.63,15.24,3.36,22.8,5.27,1.66.42,2.77,1.66,3.87,2.89,2.06,2.3,4.16,4.57,6.24,6.85,2.7,2.97,3.17,3.15,5.97.09,4.42-4.83,9.26-9.21,13.9-13.81,1.58-1.57,3.28-2.89,5.53-3.27,2.07-.35,3.48.64,3.08,2.63-1.44,7.18-.88,15-6.74,20.83-2.18,2.16-3.8,4.86-5.8,7.21-3.12,3.67-3.79,7.42-1.86,12.06,3.77,9.07,6.39,18.54,8.72,28.07.13.53.31,1.05.39,1.59.33,2.08,1.74,4.45-.43,6.1-2.47,1.87-5.04.35-7.03-1.05-4.47-3.14-8.18-7.18-11.69-11.36-1.98-2.36-3.75-4.91-5.75-7.26-2.14-2.5-3-2.67-5.24-.16-4.84,5.41-9.48,11-14.07,16.62-1.75,2.14-3.65,4.02-5.94,5.55-2.06,1.38-4.02,1.34-6.03-.17-3.1-2.33-6.27-4.58-5.72-9.03Z"/>
</svg>