<svg width="86" height="86" viewBox="0 0 86 86" fill="none" xmlns="http://www.w3.org/2000/svg">
<path d="M24.9432 37.3463C26.5997 37.3463 28.0722 38.0852 29.5152 38.9371C32.7473 40.8408 36.0898 42.5272 39.1746 44.7178C41.8986 46.6476 44.0337 46.2651 46.4633 44.0571C50.277 40.5974 54.2968 37.4593 58.2283 34.1734C59.7596 32.8869 61.3131 31.6351 63.1831 31.1483C65.3035 30.592 66.2311 31.6003 65.9514 34.1821C65.701 36.4422 64.9206 38.4329 63.4703 39.9802C58.2136 45.5784 52.9421 51.1592 47.6781 56.7573C46.4633 58.0526 45.1012 58.296 43.5846 57.6701C36.399 54.6711 29.2354 51.5677 22.44 47.4647C19.9074 45.9348 19.5024 43.9267 20.5111 40.2149C21.1369 37.9113 22.2118 37.2159 24.9506 37.355L24.9432 37.3463Z" fill="white"/>
</svg>
