<svg width="118" height="114" viewBox="0 0 118 114" fill="none" xmlns="http://www.w3.org/2000/svg">
  <path
    d="M65.7349 9.04412C72.9797 8.98343 75.4365 12.0164 73.2851 18.9124C71.2902 25.2748 70.6641 25.8003 66.0395 30.7689C62.2611 34.8466 55.6753 34.8007 52.5231 30.23C49.4501 25.7775 49.4586 26.0099 49.6602 20.7187C49.8991 14.6575 57.9768 9.10632 65.7348 9.02439L65.7349 9.04412Z"
    fill="#fff" />
  <path
    d="M59.3284 105.161C47.4381 105.439 46.1145 104.408 44.9242 92.6268C43.6717 80.1876 44.9813 68.0891 50.3307 56.6042C51.5496 53.9896 53.3158 51.7757 55.3117 49.8095C60.3814 44.8269 65.4613 45.7852 67.6099 52.4867C69.4688 58.3376 67.609 64.0706 67.9001 70.1901C68.2189 76.8932 67.9004 82.4281 67.9001 92.6259C67.9004 102.825 68.3156 104.927 56.6634 105.196L59.3284 105.161Z"
    fill="#fff" />
</svg>