<?xml version="1.0" encoding="UTF-8"?>
<svg id="Calque_1" data-name="Calque 1" xmlns="http://www.w3.org/2000/svg" viewBox="0 0 117.71 113.44">
  <defs>
    <style>
      .cls-1 {
        fill: #fff;
        stroke-width: 0px;
      }
    </style>
  </defs>
  <path class="cls-1" d="M71.38,35.05c.49-2.06.11-4.27-.34-6.48-.17-.82-.39-1.64-.48-2.48-.12-1.1-.41-2.43.84-3,1.53-.7,2.35.58,2.96,1.64,1.12,1.94,2.28,3.9,3.02,6,1.63,4.62,3.29,9.27,4.4,14.04,1.04,4.48.08,9.02-2.02,13.03-1.95,3.72-4.63,6.97-8.06,9.58-3.68,2.8-7.15,5.86-10.76,8.75-1.53,1.22-3.1,2.42-4.78,3.42-3.19,1.91-5.43.89-5.75-2.94-.35-4.21.3-8.37,2.41-12.19,3.22-5.84,7.21-11.13,12.44-15.21,4.31-3.36,6.04-7.53,6.04-12.73,0-.42.05-.84.08-1.45Z"/>
  <path class="cls-1" d="M66.22,25.79c-.1,6.49-.69,7.19-7.14,7.59-6.81.42-13.38-.55-19.53-3.71-1.4-.72-2.57-1.73-3.6-2.86-2.61-2.87-1.98-5.62,1.72-6.65,3.23-.89,6.58-1.34,9.88-1.93,4.01-.73,8.01-1.05,12.1-.29,6.27,1.18,6.66,1.49,6.56,7.85Z"/>
  <path class="cls-1" d="M57.68,87.24c3.67-.02,4.91,1.52,3.81,5.01-1.02,3.22-2.36,6.32-4.71,8.83-1.92,2.06-3.55,1.94-5.14-.38-1.55-2.26-2.23-4.89-2.12-7.57.13-3.07,4.23-5.87,8.16-5.9Z"/>
</svg>