<?xml version="1.0" encoding="UTF-8"?>
<svg id="Calque_1" data-name="Calque 1" xmlns="http://www.w3.org/2000/svg" viewBox="0 0 117.71 113.44">
  <defs>
    <style>
      .cls-1 {
        fill: #fff;
        stroke-width: 0px;
      }
    </style>
  </defs>
  <path class="cls-1" d="M94.76,43.27c.06,7.9.55,15.8.37,23.71-.08,3.46-.05,6.92-.42,10.37-.06.55-.38.92-.72,1.3-1.59,1.77-3.6,3.03-5.46,4.46-4.08,3.13-8.23,6.15-12.37,9.21-.87.65-1.82.46-2.67,0-2.06-1.11-4.1-2.28-6.12-3.47-2.58-1.52-5.14-3.08-7.72-4.62-.25-.15-.51-.28-.74-.45-1.9-1.41-3.6-1.21-5.18.56-2.32,2.59-4.16,5.54-6.43,8.16-.8.93-1.59,1.87-2.43,2.77-.49.53-2.46.71-3.19.32-2.71-1.45-5.41-2.91-8.1-4.41-2.05-1.15-4.05-2.38-6.09-3.54-.53-.3-.76-.7-.84-1.28-.79-5.77-1.65-11.52-2.4-17.3-.67-5.13-1.21-10.28-1.82-15.42-.79-6.61-1.45-13.24-2.42-19.82-.15-1.04-.22-2.09-.26-3.13-.03-.95,1.66-1.8,2.83-1.32,3.58,1.48,7.3,2.56,10.95,3.83,1.49.52,3.02.9,4.42,1.68.64.36,1.36-.01,1.91-.46,2.05-1.67,4.07-3.37,6.13-5.02,2.52-2.02,5.17-3.89,7.96-5.48,1.56-.89,3.37-.33,4.95.58,2.88,1.64,5.92,2.97,8.84,4.53,2.2,1.17,4.59,1.94,6.71,3.25.39.24.77.3,1.22.04,3.85-2.15,7.72-4.25,11.55-6.43.91-.52,1.76-1.14,2.67-1.67,2.17-1.27,3.92.04,4.34,2.17.55,2.77.5,5.61.52,8.43.02,2.82,0,5.64,0,8.46Z"/>
</svg>