<?xml version="1.0" encoding="UTF-8"?>
<svg id="Calque_1" data-name="Calque 1" xmlns="http://www.w3.org/2000/svg" viewBox="0 0 117.71 113.44">
  <defs>
    <style>
      .cls-1 {
        fill: #fff;
        stroke-width: 0px;
      }
    </style>
  </defs>
  <path class="cls-1" d="M64.65,72.66c1.15-2.74,4.29-4.41,6.76-2.84,3.28,2.08,5.4,6.97,7.81,9.93,2.27,2.79,7.8,7,7.63,11.01-.42,9.9-12.1,1.13-14.77-1.84-3.05-3.39-9.57-11.14-7.43-16.25Z"/>
  <path class="cls-1" d="M54.91,82.68c-.67.4-1.39.69-2.17.57-1.42-.23-1.75-.88-2.52-1.94-1.51-2.1-.98-5.54-.99-7.85,0-5.06-.47-17.84,2.94-21.45,3.83-4.06,11.45-1.61,16.12-.9,5.09.77,13.34,1.09,14.56,7.16,2.27,11.24-19.34,19.24-26.21,23.27-.54.32-1.12.78-1.73,1.14Z"/>
  <path class="cls-1" d="M24.82,64.11c1.4-1.57,2.34-5.79,2.75-6.84,1.96-5.05,5.47-9.78,8.96-13.9,4.85-5.73,12.19-10.07,19.36-12.08,5.53-1.54,12.5-1.31,18.19-.37,1.96.32,10.76,2.09,5.87-2.55-2.09-1.98-10.77-1.79-13.59-1.88-5.35-.17-9.92.89-14.95,2.5-13.43,4.3-23.96,15.51-28.42,28.82-.52,1.54-1.83,3.98-.78,5.65.99,1.56,1.86,1.47,2.6.64Z"/>
  <path class="cls-1" d="M66.91,35.28c.84-.55,2.22-1.02,3.97-1.32,2.74-.47,7.36-.86,8.43-4.01,1.42-4.18-4.29-7.56-4.65-11.31,6.06-2.79,12.55,12.74,9.76,16.99-2.99,4.55-10.29,3.97-14.81,2.98-3.9-.86-4.37-2.23-2.7-3.31Z"/>
  <path class="cls-1" d="M36.75,60.34c-6.1-.86-11.06,5.32-15.04-2.6-1.02-2.02-4.41-9.19-5.68-3.49-.82,3.67,4.94,9.62,7.25,11.91,2.8,2.79,4.42,2.91,7.88.78,2.19-1.34,6.15-3.63,5.59-6.61Z"/>
</svg>