<svg width="86" height="86" viewBox="0 0 86 86" fill="none" xmlns="http://www.w3.org/2000/svg">
<path d="M37.3463 61.0568C37.3463 59.4003 38.0852 57.9278 38.9371 56.4848C40.8408 53.2527 42.5272 49.9102 44.7178 46.8254C46.6476 44.1014 46.2651 41.9663 44.0571 39.5367C40.5974 35.723 37.4593 31.7032 34.1734 27.7717C32.8869 26.2404 31.6351 24.6869 31.1483 22.8169C30.592 20.6965 31.6003 19.7689 34.1821 20.0486C36.4422 20.299 38.4329 21.0794 39.9802 22.5297C45.5784 27.7864 51.1592 33.0579 56.7573 38.3219C58.0526 39.5367 58.296 40.8988 57.6701 42.4154C54.6711 49.601 51.5677 56.7646 47.4647 63.56C45.9348 66.0926 43.9267 66.4976 40.2149 65.4889C37.9113 64.8631 37.2159 63.7882 37.355 61.0494L37.3463 61.0568Z" fill="#A29885"/>
</svg>
