<?xml version="1.0" encoding="UTF-8"?>
<svg id="Calque_1" data-name="Calque 1" xmlns="http://www.w3.org/2000/svg" viewBox="0 0 117.71 113.44">
  <defs>
    <style>
      .cls-1 {
        fill: #fff;
        stroke-width: 0px;
      }
    </style>
  </defs>
  <path class="cls-1" d="M44.05,86.38c-5.09-.05-6.09-1.21-5.02-6.31.67-3.19,1.35-6.42,2.55-9.43,1.26-3.17.95-5.91-.59-8.82-4.07-7.69-7.57-15.65-10.72-23.76-2.75-7.09-1.35-9.22,6.2-9.55,2.93-.13,5.26.81,7.23,2.99,6.09,6.7,12.18,13.4,18.4,19.97,2.3,2.42,2.74,4.76,1.47,7.86-3.32,8.07-7.49,15.69-11.8,23.24-1.88,3.3-3.32,3.86-7.73,3.82Z"/>
  <path class="cls-1" d="M63.59,81.24c0-2.25.85-4.25,1.83-6.21,2.19-4.39,4.13-8.93,6.65-13.12,2.22-3.7,1.78-6.6-.76-9.9-3.98-5.18-7.59-10.64-11.37-15.98-1.48-2.08-2.92-4.19-3.48-6.73-.64-2.88.52-4.14,3.49-3.76,2.6.34,4.89,1.4,6.67,3.37,6.44,7.14,12.86,14.3,19.3,21.45,1.49,1.65,1.77,3.5,1.05,5.56-3.45,9.76-7.02,19.49-11.74,28.72-1.76,3.44-4.07,3.99-8.34,2.62-2.65-.85-3.45-2.31-3.29-6.03Z"/>
</svg>