<?xml version="1.0" encoding="UTF-8"?>
<svg id="Calque_1" data-name="Calque 1" xmlns="http://www.w3.org/2000/svg" viewBox="0 0 117.71 113.44">
  <defs>
    <style>
      .cls-1 {
        fill: #fff;
        stroke-width: 0px;
      }
    </style>
  </defs>
  <path class="cls-1" d="M28.99,60.23c-.02-3.66,0-7.33,1.23-10.84,1.39-3.99,3.83-7.52,6.44-10.8,2.66-3.34,5.09-6.87,8.13-9.92,1.89-1.89,3.89-2.38,6.49-2.11,2.71.28,3.81,2.01,4.13,4.55.42,3.33.73,6.68,1.02,10.02.27,3.08.72,6.09,1.04,9.16.2,1.99.44,3.99.52,5.99.11,2.72.64,5.42.75,8.16.12,3.01.1,6.03.1,9.05,0,3.42.31,6.81-.83,10.11-1.41,4.08-5.26,6.48-9.14,7.88-1.96.71-3.75.15-5.34-1.01s-2.63-3.23-3.9-4.75c-1.57-1.88-3.11-3.85-4.49-5.87-.86-1.26-1.68-2.54-2.56-3.81-1.21-1.74-2.92-3.97-3.39-6.02-.6-2.59-.19-5.28-.19-7.91,0-.63,0-1.26,0-1.89Z"/>
  <path class="cls-1" d="M80.55,28.42c1.89-.95,3.34,0,4.6,1.15,8.96,8.24,14.16,18.59,15.35,30.54.69,6.95-2.61,13.34-5.95,19.4-.5.91-1.23,1.72-2.41,1.65-1.42-.08-2.1-1.13-2.42-2.32-.77-2.89-.36-5.73.3-8.62,3.04-13.28,2.16-25.84-6.97-36.86-1.14-1.38-2.7-2.69-2.51-4.94Z"/>
  <path class="cls-1" d="M84.19,59.42c-.74,5.18-2.23,10.38-6.24,14.51-1.22,1.25-2.67,2.45-4.5,1.72-2-.79-2.6-2.76-2.43-4.69.23-2.54.57-5.14,1.37-7.54,2.55-7.62,1.73-14.82-2.05-21.8-.41-.75-.74-1.55-1-2.36-.38-1.16-.68-2.44.69-3.16,1.25-.65,2.46-.07,3.21.88,2.41,3.09,4.93,6.15,6.95,9.49,2.31,3.82,3.73,8.06,4.01,12.94Z"/>
  <path class="cls-1" d="M24.58,60.84c0,.17-.01.34-.02.51-.09,2.22-.03,4.47-.43,6.66-.68,3.75-2.5,4.34-5.84,2.72-7.53-3.66-8.13-13.19-2.81-18.67,1.12-1.15,2.36-1.96,3.96-2.19,4.8-.69,4.76,3.47,5.07,7.01.11,1.31.11,2.65.07,3.96Z"/>
</svg>