<?xml version="1.0" encoding="UTF-8"?>
<svg id="Calque_1" data-name="Calque 1" xmlns="http://www.w3.org/2000/svg" viewBox="0 0 117.71 113.44">
  <defs>
    <style>
      .cls-1 {
        fill: #fff;
        stroke-width: 0px;
      }
    </style>
  </defs>
  <path class="cls-1" d="M78.02,40.53c1.27-1,2.7-1.98,4.09-2.88,2.94-1.91,11.6-2.43,8.33,2.9-2.26,3.68-6.31,5.9-9.17,9.03-6.7,7.32-13.98,14.03-21.2,20.83-1.8,1.7-3.61,3.29-5.51,4.91-3.6,3.05-7.01,6.01-10.53,9.1-2.27,1.99-4.67,4.08-7.57,5.08-1.52.52-5.14.31-5.46-1.75-.27-1.81,1.97-3.75,3.11-4.86,1.82-1.78,3.69-3.55,5.54-5.33,7.9-7.62,15.66-15.38,23.64-22.91,4.81-4.55,9.25-9.68,14.39-13.84.11-.09.22-.18.34-.27Z"/>
  <path class="cls-1" d="M39.04,61.12c0,.12,0,.25,0,.37-.01,2.14.32,4.71-.12,6.79-.73,3.45-3.11,4.16-6.07,2.72-7.53-3.66-8.13-13.19-2.81-18.67,1.12-1.15,2.36-1.96,3.96-2.19,3.57-.51,4.66,1.75,4.88,4.86.14,2.04.17,4.08.16,6.12Z"/>
  <path class="cls-1" d="M71.22,42.7c.13-.95,0-1.95-.01-2.9-.03-1.45-.06-2.91-.13-4.36-.14-2.9-.43-5.81-1.18-8.63-.55-2.07-1.87-3.25-4.02-3.47-2.58-.27-4.58.21-6.46,2.11-3.02,3.05-5.44,6.58-8.09,9.92-2.63,3.32-5.09,6.9-6.46,10.94-1.18,3.47-1.35,7.07-1.29,10.7.01.9.04,1.8.08,2.7.07,1.9.21,3.76.48,5.57.25,1.61,2.23,2.24,3.39,1.11.92-.9,1.84-1.8,2.76-2.69,3.54-3.45,7.08-6.9,10.66-10.31,1.79-1.7,3.58-3.4,5.39-5.08.9-.84,1.8-1.68,2.72-2.51.74-.67,1.56-1.15,1.94-2.15.11-.3.19-.61.23-.93ZM73.02,80.13c-.34-3.09-.53-6.19-.68-9.29-.1-1.93.26-6.09-2.92-4.83-1.02.41-1.71,1.35-2.49,2.09-2.28,2.15-4.58,4.29-6.86,6.44-1.8,1.7-3.61,3.29-5.51,4.91-1.39,1.18-3.72,2.49-4.19,4.34-.4,1.59.72,2.87,1.64,3.96,1.15,1.36,2.28,2.72,3.43,4.08,5.52,6.54,5.43,6.39,12.69,1.79,4.94-3.13,5.49-8.08,4.9-13.49Z"/>
</svg>