<svg width="175" height="41" viewBox="0 0 175 41" fill="none" xmlns="http://www.w3.org/2000/svg">
<path d="M160.146 40.3718L160.146 40.3718C162.493 40.3011 164.297 39.7916 165.725 38.7826C167.153 37.7733 168.258 36.2268 169.133 33.9837L169.133 33.9832C170.141 31.4102 171.324 28.9116 172.497 26.4346C172.688 26.0303 172.879 25.6267 173.069 25.2233L173.069 25.2233L173.071 25.2192C174.494 22.2679 175.011 19.2774 173.822 16.2414C171.887 11.3005 170.346 9.22793 168.128 6.24445C167.586 5.51462 167.003 4.73028 166.363 3.83611C165.252 2.28164 164.04 1.49505 162.649 1.07113C161.228 0.637975 159.607 0.577171 157.642 0.520867C149.772 0.309282 118.19 1.72936 87.2481 3.49989C71.7841 4.38476 56.491 5.35652 44.4171 6.25433C38.3799 6.70325 33.1498 7.13352 29.1066 7.52503C25.05 7.91783 22.2214 8.26877 20.9624 8.55509C13.9172 10.1626 8.98743 14.1132 5.63702 21.1202C5.06566 22.3152 4.45299 23.4343 3.86043 24.4994C3.77786 24.6478 3.69575 24.795 3.61423 24.9412C3.10834 25.8484 2.62489 26.7154 2.19317 27.5715C1.19113 29.5585 0.500302 31.4269 0.500302 33.4345L0.500302 35.0829C0.770108 36.1435 1.65768 37.0246 3.03151 37.7466C4.42071 38.4766 6.22361 38.998 8.1271 39.3656C11.9295 40.0997 16.0099 40.1974 17.6759 40.1974C20.6398 40.1974 29.8729 40.2295 42.3245 40.2728C81.0759 40.4076 151.001 40.6508 160.146 40.3718Z" fill="#3D5873" stroke="#fffbf2"/>
</svg>
