<svg width="140" height="140" viewBox="0 0 140 140" fill="none" xmlns="http://www.w3.org/2000/svg">
<path d="M67.7359 12.2259C66.3998 12.6454 65.0637 13.065 63.7276 13.4845C62.3665 15.5123 60.8654 17.4515 59.6749 19.5683C56.3171 25.4951 54.3436 31.9352 52.9418 38.5729C52.7136 39.6639 52.9379 41.2549 51.6586 41.5955C50.4842 41.9133 50.2232 40.3031 49.4722 39.6318C47.837 38.1576 46.3467 36.4951 44.5824 35.194C40.8081 32.3936 36.8153 33.4741 34.5503 37.5899C32.6568 41.0386 31.9152 44.7473 31.4297 48.5898C30.7537 54.0006 30.9323 59.4387 31.2749 65.5286C28.9575 63.6672 27.2908 62.0602 25.3868 60.8335C20.5569 57.7224 16.4188 59.5416 15.3898 65.0939C14.5605 69.5947 14.9671 74.1356 15.1647 78.6605L17.4723 86.0089C18.9422 87.6064 19.4621 89.7163 20.2346 91.6245C23.3391 99.3037 28.0931 106.231 30.6027 114.158C31.9225 118.361 34.1721 121.987 36.6073 125.554C40.977 131.939 47.9286 132.101 54.42 132.193C58.5868 132.25 62.852 130.544 66.9565 129.235C79.4097 125.232 91.5056 120.384 102.854 113.773C108.867 110.264 114.336 106.192 118.668 100.704C121.197 97.4936 120.821 95.7461 118.275 92.7641C114.323 88.1336 107.771 88.8556 103.113 90.8688C96.0065 93.9464 89.5128 98.0344 83.1795 102.439C81.0715 103.906 79.0422 105.624 75.8668 106.743C78.1026 102.015 81.1974 98.8209 83.9002 95.3525C93.3023 83.2568 101.138 70.134 108.953 57.0078C111.574 52.5968 114.131 48.1447 116.477 43.5751C118.108 40.3925 119.088 36.9247 116.772 33.6054C112.637 27.6767 104.412 25.958 98.0354 29.479C92.0162 32.8064 88.0838 38.1695 84.0237 43.4503C82.7334 45.1195 81.8335 47.1553 79.3813 48.9548C81.6618 41.6743 83.0352 35.0761 82.6167 28.2251C82.0713 19.3141 76.2332 12.9927 67.7486 12.2015L67.7359 12.2259Z" fill="#C9D7CE"/>
</svg>
