<svg width="141" height="144" viewBox="0 0 141 144" fill="none" xmlns="http://www.w3.org/2000/svg">
<path d="M69.0552 109.253C67.5656 108.183 66.257 107.01 64.9001 105.897C63.8058 104.997 62.6957 104.114 61.6047 103.213C60.6128 102.397 59.577 101.642 58.5579 100.863C57.8043 100.284 56.9889 99.7591 56.2214 99.1932C55.1877 98.4341 54.1166 97.7336 53.0881 96.9688C52.1788 96.2929 51.1915 95.7356 50.2374 95.1286C49.2406 94.4968 48.301 93.7505 47.2538 93.2121C46.0877 92.6145 45.114 91.7286 43.9255 91.1505C43.3642 90.8751 42.7345 90.5659 42.1897 90.1467C41.7855 89.8343 41.3068 89.5017 40.7795 89.3064C40.1092 89.0573 39.5135 88.6312 38.9069 88.265C37.6496 87.5047 36.3579 86.8205 35.0219 86.2163C33.9248 85.7227 32.8787 85.0984 31.7459 84.7076C30.6209 84.3176 29.5555 83.7898 28.4183 83.4267C27.3537 83.0882 26.3009 82.7416 25.1955 82.6008C23.9109 82.4383 22.6412 82.5714 21.3705 82.8202C20.2789 83.0312 19.1704 83.1482 18.1354 83.5981C17.8161 83.7372 17.5436 83.892 17.3708 84.2027C17.3379 84.2634 17.3092 84.3449 17.2542 84.3768C15.823 85.1956 16.4626 86.3489 16.8056 87.4058C17.3063 88.9499 18.2405 90.2338 19.248 91.5049C21.118 93.86 23.3765 95.7861 25.6804 97.6651C27.1087 98.8296 28.5898 99.9369 30.0466 101.068C31.2627 102.015 32.4963 102.959 33.6678 103.975C34.5965 104.781 35.596 105.509 36.5406 106.298C37.6366 107.212 38.6708 108.209 39.8033 109.072C40.8485 109.872 41.8685 110.703 42.9779 111.426C43.6254 111.851 44.2757 112.294 44.9082 112.758C45.5101 113.201 46.1664 113.57 46.7882 113.986C47.7602 114.631 48.6989 115.326 49.6957 115.928C50.8253 116.606 51.8462 117.46 53.0319 118.05C53.3608 118.212 53.6362 118.469 53.9106 118.674C54.7658 119.315 55.7131 119.805 56.5909 120.407C57.428 120.98 58.3411 121.469 59.2095 121.997C60.2189 122.613 61.2105 123.28 62.2394 123.859C63.4101 124.518 64.5748 125.19 65.7256 125.876C66.8324 126.533 67.923 127.226 69.0124 127.916C69.1592 128.009 69.3052 128.11 69.4621 128.181C70.5054 128.65 71.5406 129.137 72.3538 129.972C72.6863 130.312 73.0142 130.333 73.4475 130.181C79.2835 128.147 85.0385 125.897 90.8242 123.73C91.5598 123.452 91.5598 123.452 91.281 122.713C90.8462 121.561 90.442 120.401 89.9714 119.262C89.5311 118.193 89.4902 117.059 89.3364 115.942C89.2749 115.493 89.1823 115.041 89.0809 114.614C88.7158 113.075 88.4325 111.516 87.9779 109.995C87.6331 108.835 87.211 107.696 86.8914 106.534C85.5939 101.783 83.6385 97.2699 81.9686 92.6562C81.3987 91.0862 80.8633 89.4994 80.1884 87.9764C78.9301 85.1339 78.0999 82.115 76.7782 79.3112C75.681 76.9843 74.9651 74.5248 73.9087 72.1974C73.2195 70.676 72.7647 69.0663 72.0434 67.5682C70.456 64.2771 69.352 60.7888 67.868 57.4661C65.7399 52.7019 64.01 47.791 62.0686 42.96C61.7489 42.1621 61.2792 41.4096 60.9774 40.59C60.7387 39.9474 60.6404 39.2333 60.3281 38.652C59.749 37.58 59.4432 36.3751 58.7087 35.3841C58.6784 35.3434 58.6555 35.2926 58.6371 35.2438C58.1499 33.9326 57.4215 32.731 56.8326 31.4656C56.4097 30.5615 55.8299 29.7242 55.3602 28.834C55.2699 28.6636 55.1808 28.4964 55.1165 28.3161C54.6509 27.0228 53.9258 25.8794 53.0312 24.8483C52.5725 24.3222 51.909 24.2193 51.2423 24.3443C50.0815 24.5591 48.9371 24.8569 47.7474 24.8967C47.6957 24.8976 47.6354 24.9055 47.5935 24.9324C46.6952 25.4981 45.5519 25.71 44.9925 26.7504C44.8919 26.9371 44.7108 27.0091 44.5808 27.1474C43.9896 27.7683 43.7514 28.5462 43.5018 29.3432C43.0887 30.663 43.1082 32.0354 43.0625 33.3728C43.0178 34.6541 42.9936 35.9499 42.9477 37.2279C42.893 38.7584 42.9527 40.2867 42.8748 41.8148C42.7934 43.4817 42.9039 45.1544 42.9085 46.8225C42.9156 48.497 43.1136 50.1553 43.1964 51.8236C43.2307 52.506 43.3877 53.198 43.5487 53.8811C43.7692 54.8206 43.8567 55.7916 44.0239 56.7475C44.1076 57.2254 44.188 57.7343 44.3424 58.1633C44.6921 59.1396 44.8737 60.1532 45.1534 61.141C46.1988 64.8486 47.7662 68.3629 49.0513 71.9763C49.238 72.5009 49.4406 73.0083 49.7913 73.4747C50.1836 73.9924 50.2294 74.6854 50.4188 75.3057C50.8898 76.8498 51.7086 78.2516 52.3679 79.7135C53.0408 81.2113 53.5928 82.7732 54.3872 84.1991C54.8441 85.0159 55.1965 85.8908 55.6468 86.7101C56.0629 87.468 56.5384 88.2258 56.8349 89.0809C57.0348 89.66 57.3841 90.2608 57.7407 90.8217C58.2648 91.6392 58.7429 92.4927 59.1551 93.3785C59.4254 93.957 59.7918 94.4845 60.143 95.0214C60.5507 95.6486 60.9099 96.3052 61.2789 96.9581C61.7027 97.7168 62.2228 98.4057 62.7088 99.1223C63.0605 99.6404 63.3238 100.21 63.6746 100.736C64.1366 101.429 64.6286 102.102 65.0381 102.833C65.7871 104.168 66.7371 105.375 67.5085 106.691C67.9992 107.528 68.6489 108.265 69.0605 109.248L69.0552 109.253Z" fill="#C9D7CE"/>
<path d="M124.704 23.5611C127.666 30.1429 128.921 36.8347 127.834 43.84C127.277 47.4387 125.186 50.4842 123.447 53.5642C120.192 59.353 116.489 64.8402 110.228 67.9358C107.438 69.3228 106.382 68.9955 104.852 66.2236C103.361 63.525 103.118 60.5271 103.227 57.6104C103.317 55.2023 102.583 53.242 101.605 51.2248C98.6594 45.1318 94.3665 39.7003 92.6855 32.9673C91.2592 27.2695 90.6243 21.5445 91.7626 15.7446C92.849 10.1982 96.7031 7.47422 102.722 9.42995C110.141 11.8456 117.706 14.5499 122.902 21.0549C123.57 21.8896 124.146 22.7973 124.685 23.5478L124.704 23.5611Z" fill="#C9D7CE"/>
</svg>
