<svg width="144" height="146" viewBox="0 0 144 146" fill="none" xmlns="http://www.w3.org/2000/svg">
<path d="M11.687 145.324C3.67304 145.324 0.556522 136.42 0 131.968C40.0696 105.255 95.1652 103.585 125.217 106.924C155.27 110.263 140.243 125.289 140.243 130.298C140.243 135.307 128.557 148.663 121.878 145.324C115.2 141.985 21.7043 145.324 11.687 145.324Z" fill="white"/>
<path d="M38.4171 104.647C36.8224 104.033 35.0505 103.66 33.6532 102.771C25.3733 97.5325 16.4757 93.1703 8.66403 87.2764C7.91621 86.7158 7.17347 86.1373 6.45601 85.5464C5.46573 84.7231 4.05823 83.9865 4.35526 82.6215C4.70052 81.0465 6.39453 80.8817 7.84089 80.589C12.754 79.6097 17.6393 78.5351 22.5977 77.7048C45.9234 73.8012 69.3371 70.321 93.3599 69.9095C95.9689 69.8663 98.6542 69.4751 100.956 71.3773C104.134 74.0027 107.026 76.9073 109.04 80.2939C110.431 82.6398 108.445 84.0737 106.442 85.1431C99.6049 88.7696 92.4323 91.8058 84.9569 94.3289C73.3289 98.2691 61.4462 101.564 49.5155 104.758C45.7755 105.756 42.1879 105.864 38.3968 104.641L38.4171 104.647Z" fill="white"/>
<path d="M57.9838 39.408C66.9001 42.6963 75.8392 45.9423 84.72 49.3177C87.826 50.4936 90.4131 55.218 89.8316 57.9807C89.5929 59.0996 88.7101 59.6386 87.7641 60.1695C85.4775 61.4702 82.8834 61.7315 80.1962 61.4707C69.2781 60.4092 58.7372 61.6123 48.3445 63.878C42.9863 65.043 33.3935 60.631 30.8519 55.9778C30.4052 55.1617 30.2189 54.312 30.3991 53.478C31.43 48.6543 32.5796 43.8737 35.5387 39.7192C36.9639 37.719 38.8306 36.7085 41.6188 37.0366C47.079 37.6794 52.6105 37.7979 57.9889 39.4289L57.9838 39.408Z" fill="white"/>
<path d="M71.0068 33.8555C72.2943 32.9717 70.2932 28.3504 70.1028 27.3424C69.5662 24.5569 65.3981 8.04126 65.0058 6.24596C64.6134 4.45065 64.0883 1.53401 62.6457 0.329188C61.1628 -0.911425 58.6585 1.67716 57.6314 2.75673C55.1617 5.33935 54.2904 9.06119 53.4595 12.4669C52.7324 15.4432 52.1438 18.4553 51.8092 21.4375C51.5784 23.537 50.8109 26.1136 51.2379 28.2728C52.8153 32.1675 63.6959 34.8934 68.7218 34.8337C69.6451 34.8218 70.6202 35.0305 70.978 33.9748C70.9895 33.939 71.0011 33.8973 71.0126 33.8555H71.0068Z" fill="white"/>
</svg>
