<svg width="32" height="32" viewBox="0 0 32 32" fill="none" xmlns="http://www.w3.org/2000/svg">
<g clip-path="url(#clip0_2477_105)">
<path d="M11.3921 9.52711C10.0228 9.41757 8.60917 7.13664 8.92743 6.03688C10.4337 0.843588 16.39 0.96902 16.8008 0.96902C17.2116 0.96902 22.278 1.51674 21.5934 3.77607C20.9087 6.03541 13.1037 9.66404 11.3921 9.52711Z" fill="#3D5873"/>
<path d="M15.5973 20.3682C9.24026 20.8509 -0.650558 25.9469 0.295632 28.6624C0.952354 30.5473 11.3286 31.2266 23.7406 29.8697C33.6702 28.7842 30.702 25.5057 28.075 24.2978C24.4966 22.6524 21.9544 19.8855 15.5973 20.3682Z" fill="#3D5873"/>
<path d="M3.33911 14.0451C1.82241 17.4454 5.35039 19.5141 7.41011 20.2598C8.81283 20.9565 16.4698 17.9226 21.1042 16.8786C25.7386 15.8347 25.0364 14.0451 24.8959 12.0318C24.7555 10.0185 5.23499 9.79478 3.33911 14.0451Z" fill="#3D5873"/>
</g>
<defs>
<clipPath id="clip0_2477_105">
<rect width="32" height="32" fill="white"/>
</clipPath>
</defs>
</svg>
