<svg width="144" height="144" viewBox="0 0 144 144" fill="none" xmlns="http://www.w3.org/2000/svg">
<path d="M85.1528 143.134C77.128 143.134 69.0956 143.31 61.0785 143.081C53.2905 142.859 45.5177 142.195 37.7372 141.768C34.9198 141.615 32.0871 141.486 29.2696 141.524C24.299 141.593 19.3208 141.31 14.4036 140.616C11.4411 140.204 0.201885 138.762 0.00336576 133.443C-0.218059 127.468 10.2841 124.155 19.3545 120.404C38.2902 112.575 60.231 97.2035 80.6861 104.636C99.2714 108.883 119.405 115.006 119.405 115.006C119.405 115.006 129.926 118.265 135.21 119.753C138.486 120.669 140.105 122.251 142.907 124.327C144.19 125.273 143.495 128.004 142.907 128.739C139.965 132.416 139.738 132.687 137.814 135.366C133.553 141.295 127.88 141.806 122.1 142.325C109.8 143.416 97.4838 143.157 85.168 143.134H85.1528Z" fill="#A1BAC333" stroke="#3D5873" stroke-width="1"/>
<path d="M124.612 107.039C124.396 107.134 124.168 107.22 123.916 107.287C118.827 108.79 112.355 106.774 107.29 105.882C97.839 104.23 88.8815 100.663 79.8545 97.542C70.8275 94.4207 61.7405 92.2882 52.6108 89.8456C48.6512 88.7865 42.2389 88.7499 41.7059 83.4513C41.318 79.6038 43.1735 74.4791 45.4321 71.413C48.0844 67.8026 52.7973 67.8432 57.1092 66.9092C67.0596 64.7448 77.1839 62.6166 87.4203 62.7284C95.3209 62.8117 100.144 67.0465 104.934 72.766C112.39 81.6678 113.562 82.557 118.009 87.7594C122.455 92.9619 131.45 104.075 124.61 107.028L124.612 107.039Z" fill="#A1BAC333" stroke="#3D5873" stroke-width="1"/>
<path d="M99.9737 32.5738C98.5614 32.5798 97.2266 32.9445 95.9189 33.4363C87.2406 36.7065 78.3644 39.4356 69.5188 42.2141C65.096 43.6033 60.6755 45.0076 56.285 46.5077C53.1132 47.5913 49.0417 48.904 46.3609 50.9318C45.3632 51.6853 44.3357 52.4974 43.4179 53.3699C41.6915 55.0213 32.4611 64.2181 39.4284 63.8705C42.6017 63.713 45.7555 63.1724 48.9011 62.6795C56.8443 61.435 64.7475 59.9265 72.7111 58.9182C79.4472 58.0654 86.1953 57.342 92.9092 56.2919C96.1906 55.7783 99.4796 55.2636 102.75 54.6745C105.283 54.2204 107.45 53.1274 109.03 50.9733C110.334 49.1854 111.76 47.487 113.151 45.7631C116.166 42.0174 115.414 37.624 111.156 35.3683C107.695 33.5318 103.954 32.4943 99.9737 32.5738Z" fill="#A1BAC333" stroke="#3D5873" stroke-width="1"/>
<path d="M59.2686 38.114C57.6771 37.4645 59.1149 32.4036 59.1536 31.3466C59.2721 28.4238 61.0767 10.9057 61.205 9.01302C61.3334 7.12032 61.4163 4.06689 62.8203 2.57183C64.2633 1.03282 67.5093 3.17638 68.8437 4.07365C72.05 6.21778 73.6669 9.82024 75.1839 13.1103C76.5107 15.9853 77.6889 18.923 78.5782 21.8789C79.1989 23.9608 80.5018 26.4235 80.3976 28.6912C79.3076 32.9356 67.6185 37.7707 61.9913 38.6687C60.9575 38.8327 59.9037 39.2301 59.3215 38.2293C59.3024 38.1953 59.2823 38.1552 59.2622 38.1151L59.2686 38.114Z" fill="#A1BAC333" stroke="#3D5873" stroke-width="1"/>
</svg>
