<svg width="133" height="168" viewBox="0 0 133 168" fill="none" xmlns="http://www.w3.org/2000/svg">
<path d="M46.5035 114.538C49.4843 114.203 53.9348 114.29 56.9054 114.738C61.1715 115.383 61.4532 115.113 64.7302 115.642C68.0072 116.172 71.1438 116.885 74.821 118.341C92.8774 125.492 114.289 133.785 124.834 140.365C125.988 141.225 127.23 142.121 128.285 143.122C130.052 144.803 132.675 148.182 131.632 150.065C130.737 151.681 125.528 152.868 122.947 153.619C113.771 156.292 104.215 156.752 94.6893 156.794C88.0275 156.822 81.3691 156.88 74.7132 156.96C70.1843 157.017 65.6472 157.135 61.1208 157.214C55.7538 157.311 50.391 157.377 45.0257 157.489C40.127 157.594 35.2275 157.761 30.3212 157.868C24.322 157.997 18.3304 158.126 12.3363 158.232C9.65276 158.28 7.83087 158.838 5.91063 157.021C4.46096 155.642 3.44884 153.93 3.80073 151.88C4.16349 149.791 5.18677 146.899 6.27543 145.066C10.0204 138.784 14.8819 133.166 19.3177 127.374C25.4034 119.425 32.7106 116.211 42.3729 115.002C43.7557 114.831 45.1342 114.692 46.5187 114.536L46.5035 114.538Z" fill="#A1BAC333" stroke="#3D5873" stroke-width="1"/>
<path d="M103.663 63.1909C103.935 65.6076 103.662 66.1139 101.303 66.7934C95.7888 68.3796 90.2133 69.62 84.5381 70.5877C77.524 71.7749 70.734 73.8651 64.4252 77.4434C58.0652 81.0427 51.5696 84.4578 44.9441 87.5346C39.4981 90.0645 34.1584 92.8587 28.4536 94.8577C26.1831 95.6499 24.5525 95.3192 22.9587 93.6801C21.9273 92.6146 20.8145 91.6426 19.7076 90.6546C18.5417 89.6195 17.7665 88.3794 17.8324 86.784C18.031 81.5986 18.2608 76.4174 19.8107 71.3947C20.3723 69.5748 21.4106 68.4531 23.2197 67.7128C30.5204 64.7135 37.952 62.0602 45.6515 60.4277C54.4209 58.5676 57.8537 57.4837 66.8802 57.2287C72.1344 57.0832 81.2003 56.7702 86.6844 56.2152C93.0138 55.9565 95.9396 56.088 98.8944 56.408C101.224 56.6218 101.61 57.7168 102.59 59.3482C103.126 60.2316 103.542 62.1765 103.678 63.1892L103.663 63.1909Z" fill="#A1BAC333" stroke="#3D5873" stroke-width="1"/>
<path d="M45.6798 109.83C41.612 110.172 37.1768 111.676 37.2355 106.199C37.2676 103.28 38.2959 99.2063 39.8628 96.721C41.4298 94.2357 45.1461 92.675 47.5575 91.0921C53.5505 87.1581 59.6395 83.3284 66.1786 80.3688C67.1918 79.9097 68.2389 79.5465 69.2732 79.1387C70.4319 78.6786 71.6214 78.5603 72.8141 78.9479C75.1044 79.6955 77.3763 80.4836 79.6549 81.2632C80.6028 81.5862 81.0722 82.3544 81.5769 83.1645C83.2631 85.8979 83.4153 88.8881 83.3725 91.9846C83.3028 97.3627 82.3398 101.882 76.4825 104.228C73.3887 105.466 70.4564 106.708 67.1036 107.277C59.9617 108.486 52.8662 109.222 45.7025 109.828L45.6798 109.83Z" fill="#A1BAC333" stroke="#3D5873" stroke-width="1"/>
<path d="M88.9166 53.7241C81.4951 54.5582 73.67 54.8008 66.2054 54.9109C59.4521 55.0101 52.3606 55.5769 45.6529 54.6507C41.747 54.1153 38.2053 51.9127 35.4347 49.2091C34.2644 48.0671 34.3016 47.5796 35.5981 46.5056C37.8201 44.6678 40.2535 43.1439 42.8377 41.8715C50.01 38.342 57.5526 35.7912 65.1797 33.4457C67.3049 32.7926 69.4184 32.1025 71.4888 31.3021C73.6835 30.4494 75.8605 30.7341 78.0546 31.1703C79.0108 31.362 79.7002 31.975 80.3032 32.7051C84.6747 37.9292 88.3507 43.5767 90.8945 49.9192C91.0328 50.2642 91.1569 50.6185 91.2574 50.9678C91.8066 52.8547 91.5499 53.2978 89.6723 53.6315C89.2217 53.7129 88.7569 53.7344 88.9082 53.7174L88.9166 53.7241Z" fill="#A1BAC333" stroke="#3D5873" stroke-width="1"/>
<path d="M45.4136 30.961C44.1174 30.1527 46.132 25.9265 46.3237 25.0047C46.864 22.4574 51.0605 7.35376 51.4555 5.71194C51.8506 4.07013 52.3792 1.40286 53.8316 0.301043C55.3247 -0.8335 57.846 1.53377 58.8801 2.52104C61.3666 4.88285 62.2439 8.28648 63.0805 11.401C63.8125 14.1228 64.405 16.8774 64.742 19.6046C64.9744 21.5246 65.747 23.881 65.3171 25.8555C63.729 29.4172 52.7743 31.9101 47.7142 31.8555C46.7846 31.8446 45.8028 32.0355 45.4426 31.0701C45.431 31.0373 45.4194 30.9992 45.4078 30.961H45.4136Z" fill="#A1BAC333" stroke="#3D5873" stroke-width="1"/>
</svg>
