<svg width="146" height="183" viewBox="0 0 146 183" fill="none" xmlns="http://www.w3.org/2000/svg">
<path d="M45.7701 86.6968C51.2163 86.8813 58.1049 86.2907 64.9935 85.6263C68.0359 85.331 71.1008 85.1981 74.1582 85.0209C84.0141 84.4377 93.8474 83.5666 103.711 82.9834C111.621 82.5183 119.516 82.4814 127.419 82.6512C132.249 82.7545 137.072 83.4116 141.797 84.5042C144.456 85.1243 144.884 85.8478 145.41 88.4169C145.921 90.9269 145.425 93.1564 144.479 95.4819C142.27 100.908 139.769 106.179 136.674 111.17C135.329 113.34 135.141 113.473 132.602 112.971C124.85 111.428 117.06 110.099 109.21 109.139C104.702 108.593 100.188 108.113 95.6653 107.715C88.6715 107.102 81.7604 105.913 74.7967 105.05C65.8799 103.942 56.9706 102.754 48.0387 101.794C42.2469 101.174 36.8983 99.1583 31.5347 97.202C28.2294 95.9913 27.1251 90.3215 29.5064 88.1142C30.7534 86.9625 32.331 86.7337 33.916 86.7041C37.3791 86.6377 40.8346 86.682 45.7851 86.682L45.7701 86.6968Z" fill="#A1BAC333" stroke="#3D5873" stroke-width="1"/>
<path d="M22.9412 182.971C16.0376 182.675 9.16402 182.048 2.3055 181.213C-0.158465 180.911 -0.271146 180.616 0.254699 178.172C0.517622 176.939 0.848154 175.714 1.08103 174.473C1.39654 172.783 2.25291 171.454 3.45484 170.214C8.68325 164.788 13.5511 159.051 18.5166 153.396C22.1299 149.284 25.8183 145.239 29.5443 141.23C31.55 139.075 33.4055 136.816 35.246 134.534C37.0188 132.334 37.9578 129.846 38.4461 127.13C39.4677 121.394 40.2866 115.621 41.804 109.98C42.5402 107.241 44.4783 106.518 46.8296 108.157C47.8963 108.902 48.6175 109.943 49.3311 110.999C51.5397 114.262 53.0871 117.835 54.3867 121.504C56.9859 128.828 59.863 136.062 61.1476 143.799C61.9514 148.627 61.5683 153.278 60.2386 157.9C58.1503 165.142 54.4393 171.698 51.1115 178.416C50.518 179.611 49.4513 180.01 48.2343 180.187C45.3046 180.616 42.3824 181.118 39.4452 181.442C33.9539 182.048 28.5076 183.081 22.9412 182.985V182.971Z" fill="#A1BAC333" stroke="#3D5873" stroke-width="1"/>
<path d="M83.473 79.6311C77.0126 79.9781 70.6199 78.8117 64.1895 79.0701C63.1679 79.1144 62.2664 78.7969 61.4701 78.1177C59.2992 76.2795 57.0906 74.4856 54.9046 72.6621C53.7402 71.695 53.3271 70.5138 53.7102 69.0152C54.5891 65.6267 55.4304 62.2234 56.2267 58.8127C56.5047 57.6315 57.2634 56.9744 58.285 56.5093C65.5417 53.1872 72.4904 49.2524 79.8672 46.1296C83.458 44.6089 86.9661 44.8229 90.602 45.2733C98.8578 46.2921 107.023 47.7316 114.934 50.3672C117.984 51.3859 118.179 51.5188 118.006 54.7376C117.691 60.7616 116.669 66.6971 115.602 72.6326C115.272 74.4487 114.107 75.2164 112.425 75.6225C102.899 77.8889 93.3739 80.1405 83.4881 79.6238L83.473 79.6311Z" fill="#A1BAC333" stroke="#3D5873" stroke-width="1"/>
<path d="M110.254 178.771C108.263 179.169 107.099 177.951 105.776 176.216C101.337 170.362 99.6841 163.688 99.1508 156.616C99.0982 155.951 99.1808 155.258 99.316 154.601C101.547 143.652 103.635 132.675 106.738 121.918C106.873 121.453 106.971 120.966 107.159 120.523C107.707 119.231 107.519 117.474 109.247 116.898C111.35 116.19 113.536 115.946 115.58 117.039C117.863 118.264 119.756 119.866 121.003 122.236C123.595 127.182 125.39 132.431 127.238 137.65C131.295 149.115 134.698 160.787 138.296 172.4C138.499 173.042 138.694 173.721 138.709 174.385C138.754 175.884 138.026 176.763 136.538 177.014C135.179 177.25 133.804 177.471 132.429 177.538C127.208 177.804 121.98 178.084 116.752 178.21C114.663 178.261 112.642 178.778 110.261 178.763L110.254 178.771Z" fill="#A1BAC333" stroke="#3D5873" stroke-width="1"/>
<path d="M63.4084 36.2672C63.4084 35.684 63.4234 35.1008 63.4084 34.5176C63.3408 32.015 64.5277 30.413 66.7889 29.2096C75.0446 24.8319 83.8338 21.9748 92.9159 19.8487C94.3281 19.5165 95.6578 19.797 97.025 20.0037C99.4664 20.3655 101.953 20.5353 104.349 21.089C108.218 21.9896 109.165 23.8131 108.038 27.5338C107.181 30.3687 105.348 32.7163 103.914 35.2559C102.764 37.286 101.254 39.1169 100.007 41.1027C99.0307 42.6531 97.7386 43.0665 95.9733 42.749C93.4492 42.2913 90.8726 42.0625 88.3635 41.5605C86.0799 41.1027 83.8713 41.1692 81.6177 41.7081C78.6429 42.4242 75.6381 43.0296 72.6408 43.6792C69.6359 44.3289 65.6095 42.8745 63.9268 40.5269C62.9877 39.2128 63.461 37.7068 63.4084 36.2746V36.2672Z" fill="#A1BAC333" stroke="#3D5873" stroke-width="1"/>
<path d="M77.9889 17.6632C76.1709 17.5967 75.1042 15.8618 75.7277 14.1934C76.0958 13.2042 76.7569 12.3256 77.2902 11.3955C79.0255 8.3539 80.7834 5.31971 82.4961 2.26338C83.1046 1.17078 83.9384 0.4916 85.2005 0.211067C87.2888 -0.254027 87.8147 -0.0620835 88.5433 1.93118C89.3396 4.12376 90.0382 6.34587 90.7819 8.55322C91.0674 9.40959 91.2702 10.2881 90.5791 11.0263C87.1085 14.7471 82.6989 16.733 77.9889 17.6558V17.6632Z" fill="#A1BAC333" stroke="#3D5873" stroke-width="1"/>
</svg>
