<svg width="500" height="385" viewBox="0 0 500 385" fill="none" xmlns="http://www.w3.org/2000/svg">
<path d="M398.281 138.551C403.376 133.114 409.233 128.698 416.418 126.98C419.924 126.132 423.538 126.002 427.131 125.849C432.182 125.654 437.255 125.458 442.307 125.262C455.675 124.74 462.49 160.126 465.321 169.217C475.228 201.101 482.87 233.877 491.427 266.153C494.584 278.05 499.374 291.556 499.962 303.888C500.485 314.675 495.324 325.485 490.077 334.619C481.433 349.692 472.593 364.916 460.291 377.357C455.392 382.294 452.366 386.274 445.181 383.794C438.474 381.489 432.639 376.16 427.131 371.767C414.851 361.98 403.55 351.04 393.121 339.339C378.163 322.57 367.341 303.127 355.301 284.031C349.814 275.331 343.195 265.827 340.452 255.801C337.708 245.774 340.931 235.008 345.329 226.287C358.044 201.123 371.304 176.199 387.22 152.949C390.595 148.033 394.188 142.944 398.281 138.551Z" fill="white"/>
<path d="M169.38 207.411C169.162 208.564 168.901 209.739 168.574 210.935C168.4 211.587 168.204 212.261 167.681 212.675C167.05 213.153 166.179 213.11 165.395 213.044C145.625 211.37 126.073 205.693 106.934 200.56C77.7364 192.731 52.6537 182.008 27.6581 165.109C25.5679 163.696 23.4341 162.26 21.6705 160.433C18.8182 157.475 14.7684 151.647 13.8757 147.601C12.6781 142.099 14.6813 140.903 19.9939 137.51C27.3097 132.834 35.7577 130.833 44.271 129.745C65.4128 127.005 86.7288 125.743 108.045 125.961C121.871 126.091 146.953 122.785 153.747 138.836C158.885 150.972 161.955 163.369 165.874 175.853C169.532 187.511 171.514 196.167 169.358 207.39L169.38 207.411Z" fill="white"/>
<path d="M360.157 361.697C359.656 362.197 359.134 362.698 358.611 363.176C353.211 368.091 346.854 371.854 340.561 375.573C337.731 377.248 334.857 378.944 331.7 379.901C329.37 380.597 326.953 380.902 324.536 381.184C306.66 383.229 288.741 384.49 270.8 384.49C252.859 384.49 236.616 385.512 220.003 380.728C210.706 378.052 201.126 376.291 191.937 373.115C185.035 370.745 180.093 366.612 176.892 359.674C171.057 347.016 164.721 334.532 160.17 321.331C156.665 311.174 150.677 293.383 155.467 282.878C162.065 268.35 175.629 256.127 187.321 245.622C189.216 243.925 191.241 242.207 193.723 241.62C195.682 241.163 197.707 241.49 199.689 241.794C206.46 242.881 213.123 243.751 219.916 244.73C229.975 246.622 239.991 248.797 249.919 251.277C276.679 257.954 302.001 265.435 321.031 286.336C331.699 298.059 341.759 310.304 351.165 323.049C355.824 329.356 362.008 336.185 365.317 343.319C369.084 351.453 367.059 354.803 360.135 361.675L360.157 361.697Z" fill="white"/>
<path d="M244.649 229.702C239.097 228.223 233.545 226.7 228.036 225.069C216.692 221.742 203.454 216.391 197.249 205.582C191.479 195.556 186.928 180.092 187.32 168.521C187.669 158.669 196.988 153.971 204.282 148.251C216.366 138.747 227.122 129.677 242.254 126.415C259.106 122.783 277.026 119.803 294.292 120.456C307.682 120.956 313.343 133.592 319.658 143.923C321.748 147.359 323.62 150.926 325.493 154.471C328.127 159.496 330.762 164.498 333.397 169.522C342.454 186.791 329.129 205.995 320.202 220.176C318.112 223.482 315.956 226.766 313.474 229.789C301.869 243.774 294.749 242.904 278.615 238.575C267.337 235.552 255.971 232.725 244.671 229.702H244.649Z" fill="white"/>
<path d="M107.501 223.069C108.001 223.069 108.48 223.112 108.981 223.156C115.731 223.612 122.328 225.265 128.882 226.918C135.784 228.658 142.664 230.398 149.566 232.138C150.524 232.377 151.526 232.638 152.266 233.312C155.358 236.183 147.041 248.907 144.842 251.712C140.443 257.324 134.826 261.76 129.927 266.871C98.3341 299.821 69.7459 334.729 42.6601 370.658C41.9416 371.615 41.2013 372.572 40.4174 373.486C29.4873 387.383 18.6878 383.403 3.14173 381.663C2.09661 381.555 0.899088 381.359 0.332985 380.467C-0.189572 379.663 0.00638685 378.597 0.224119 377.662C6.64721 350.279 21.3006 326.203 30.1405 299.713C37.3039 278.224 48.7566 253.822 62.7567 235.988C64.6945 233.508 66.8065 231.051 69.55 229.485C71.9668 228.093 74.7538 227.484 77.4754 226.896C87.3604 224.765 97.4196 222.612 107.522 223.047L107.501 223.069Z" fill="white"/>
<path d="M435.973 48.1232C420.229 48.1231 393.846 45.0239 393.846 46.8832V50.6027L395.122 52.4622L420.654 50.6027C436.399 49.9827 438.952 48.1232 435.973 48.1232Z" fill="white" stroke="white" stroke-width="1.23462"/>
<path d="M46.3571 52.7635C66.1622 54.7684 93.7177 55.5674 95.0094 54.3655L96.301 51.3547L95.4399 48.7576L62.7181 49.9597C56.2598 49.9597 42.4822 52.3712 46.3571 52.7635Z" fill="white" stroke="white" stroke-width="1.23462"/>
<path d="M151.534 80.9793C146.344 81.0673 141.77 80.2756 137.811 78.6041C133.94 76.8447 130.685 74.4695 128.046 71.4785C125.407 68.3995 123.428 64.8807 122.108 60.922C120.788 56.8753 120.129 52.6088 120.129 48.1222C120.129 41.5244 121.404 35.7184 123.955 30.704C126.595 25.6897 130.201 21.775 134.776 18.9599C139.35 16.0569 144.497 14.6054 150.215 14.6054C152.942 14.6054 155.449 14.9572 157.736 15.661C160.023 16.2768 162.179 17.2445 164.202 18.564C166.313 19.7956 168.337 21.3791 170.272 23.3145L163.278 32.6834C159.935 30.0442 156.285 27.845 152.326 26.0855C148.367 24.2382 144.453 23.1825 140.582 22.9186C137.855 26.1735 135.787 29.6484 134.38 33.3431C133.06 37.0379 132.401 41.0846 132.401 45.4831C132.401 50.4095 133.192 54.808 134.776 58.6787C136.447 62.5495 138.866 65.6284 142.033 67.9157C145.2 70.1149 149.027 71.2146 153.514 71.2146C155.449 71.2146 157.604 70.9947 159.979 70.5548C162.443 70.027 164.862 69.2352 167.237 68.1796L169.48 73.7218L151.534 80.9793ZM215.538 81.6391C209.996 81.6391 204.938 80.2756 200.363 77.5485C195.877 74.7334 192.27 70.8187 189.543 65.8044C186.816 60.7021 185.452 54.7201 185.452 47.8583C185.452 40.8207 186.816 34.8386 189.543 29.9123C192.358 24.8979 196.009 21.1152 200.495 18.564C205.07 15.9249 209.996 14.6054 215.274 14.6054C220.728 14.6054 225.611 15.9689 229.921 18.696C234.32 21.3351 237.795 25.2058 240.346 30.3081C242.985 35.3225 244.305 41.4365 244.305 48.6501C244.305 55.9516 242.985 62.0656 240.346 66.992C237.707 71.8304 234.188 75.4812 229.789 77.9444C225.479 80.4075 220.728 81.6391 215.538 81.6391ZM216.99 73.062C219.013 73.062 221.124 72.7541 223.324 72.1383C225.787 70.4668 227.634 68.3555 228.866 65.8044C230.097 63.2532 230.889 60.5701 231.241 57.755C231.681 54.94 231.901 52.3888 231.901 50.1016C231.901 45.2632 231.285 40.7767 230.053 36.642C228.91 32.5074 227.018 29.1645 224.379 26.6134C221.828 24.0622 218.441 22.7866 214.219 22.7866C212.195 22.7866 210.304 23.0945 208.545 23.7103C206.785 24.2382 205.334 24.8979 204.19 25.6897C201.903 28.4168 200.275 31.6717 199.308 35.4544C198.428 39.1492 197.988 42.8 197.988 46.4068C197.988 50.9813 198.648 55.3358 199.967 59.4705C201.287 63.5171 203.354 66.816 206.169 69.3672C208.984 71.8304 212.591 73.062 216.99 73.062ZM283.26 80.9793C281.412 81.0673 279.433 80.5835 277.322 79.5278C275.298 78.4722 273.539 77.0646 272.043 75.3052C270.636 73.5458 269.932 71.7424 269.932 69.895V18.9599L275.474 1.27777L281.676 1.27777V20.0156V62.9013C281.676 65.5405 281.984 67.3879 282.6 68.4435C283.216 69.4992 284.359 70.027 286.031 70.027C287.702 70.027 289.637 69.7191 291.837 69.1033C294.124 68.3995 296.235 67.6957 298.171 66.992L300.414 73.062L283.26 80.9793ZM261.751 27.2732L260.827 20.9393C263.466 19.7077 266.017 18.828 268.48 18.3001C271.032 17.7723 273.451 17.3764 275.738 17.1125L278.773 20.4114L272.967 27.0092L261.751 27.2732ZM272.307 27.4051V17.2445L300.15 17.2445L300.678 21.0712L294.476 27.4051L272.307 27.4051ZM348.944 80.9793C343.578 80.9793 338.871 80.0996 334.825 78.3402C330.778 76.5808 327.391 74.2056 324.664 71.2146C321.937 68.2236 319.914 64.8367 318.594 61.054C317.274 57.2712 316.615 53.3125 316.615 49.1779C316.615 44.7793 317.318 40.5128 318.726 36.3781C320.221 32.2435 322.289 28.5487 324.928 25.2938C327.567 22.0389 330.734 19.4437 334.429 17.5084C338.211 15.573 342.346 14.6054 346.833 14.6054C350.263 14.6054 353.43 15.1772 356.333 16.3208C359.236 17.4644 361.744 19.0919 363.855 21.2032C366.054 23.2265 367.726 25.6457 368.869 28.4608C370.013 31.2758 370.541 34.3548 370.453 37.6977L359.236 42.3162C359.676 38.4454 359.105 34.9706 357.521 31.8916C355.938 28.8126 353.606 26.4374 350.527 24.766C347.536 23.0945 344.106 22.3908 340.235 22.6547C337.508 24.0622 335.308 26.0855 333.637 28.7247C332.054 31.3638 330.866 34.2228 330.074 37.3018C329.37 40.3808 329.019 43.4158 329.019 46.4068C329.019 51.5971 329.986 56.0396 331.922 59.7344C333.857 63.3412 336.452 66.1123 339.707 68.0476C342.962 69.983 346.613 70.9507 350.659 70.9507C353.298 70.9507 356.026 70.5548 358.841 69.7631C361.656 68.9713 364.559 67.9157 367.55 66.5961L369.529 72.2702L348.944 80.9793ZM362.931 45.0872L327.963 44.4275V37.5657L369.001 35.7184L370.453 37.6977L362.931 45.0872Z" fill="white"/>
</svg>
