<svg width="137" height="149" viewBox="0 0 137 149" fill="none" xmlns="http://www.w3.org/2000/svg">
<path d="M0.994103 144.173C1.00743 143.973 1.04076 143.76 1.08075 143.533C1.9805 138.986 6.16602 134.799 8.90528 131.239C14.0172 124.598 20.4088 119.117 26.4805 113.397C32.5055 107.723 37.884 101.516 43.4758 95.4486C45.8952 92.8151 48.5278 87.8679 52.8399 89.6081C55.9724 90.8682 59.1782 94.3885 60.6378 97.3821C62.3573 100.902 60.4112 104.529 59.3915 108.243C57.0321 116.817 54.5661 125.518 50.334 133.385C47.0615 139.459 41.4964 140.379 35.4714 142.853C29.8929 145.146 24.601 146.52 18.576 146.88C14.3838 147.133 0.514234 150.647 1.00077 144.166L0.994103 144.173Z" fill="white"/>
<path d="M84.5646 63.6991C83.3449 63.8791 82.1452 63.7391 80.9522 63.4857C73.0344 61.7989 65.0166 60.6054 57.0188 59.3653C53.0199 58.7453 49.021 58.1119 45.0354 57.3918C42.1562 56.8718 38.4705 56.2717 35.8912 54.8716C34.9315 54.3515 33.9384 53.7848 33.032 53.1514C31.3258 51.9513 22.155 45.2174 28.2133 44.604C30.9726 44.324 33.7651 44.3773 36.5444 44.3906C43.5625 44.424 50.5805 44.6907 57.5853 44.5173C63.5103 44.3706 69.4287 44.1106 75.3604 44.1373C78.2596 44.1506 81.1655 44.164 84.0647 44.244C86.3108 44.304 88.3236 44.964 89.9698 46.6175C91.3294 47.991 92.7823 49.2711 94.2086 50.5779C97.3011 53.4181 97.2278 57.3118 93.8487 59.8187C91.1028 61.8589 88.0103 63.2457 84.5646 63.6991Z" fill="white"/>
<path d="M90.2491 119.504C85.2371 114.61 80.1118 109.823 75.2398 104.79C70.5145 99.9024 66.0623 94.7419 61.4569 89.7281C59.7907 87.908 58.1045 86.1078 56.3117 84.4077C53.1592 81.414 50.2267 78.2071 47.5741 74.7734C45.308 71.8465 42.5421 68.3995 42.1155 64.5925C41.3358 57.5919 48.1139 60.5588 52.1528 61.4789C63.3631 64.0325 72.9738 68.9529 83.6042 72.7533C90.8956 75.3602 98.3069 78.5138 104.119 83.7676C109.457 88.588 112.923 95.762 116.848 101.763C119.021 105.09 121.101 108.456 123.033 111.923C127.259 119.538 131.578 127.498 134.864 135.539C135.697 137.572 137.776 140.539 136.203 142.64C134.924 144.346 130.958 144.973 129.018 145.28C123.76 146.107 117.922 145 113.769 141.533C105.505 134.639 97.9336 127.005 90.2424 119.498L90.2491 119.504Z" fill="white"/>
<path d="M41.2317 38.5877C39.6168 37.5803 42.1268 32.313 42.3657 31.1641C43.0388 27.9894 48.267 9.16523 48.7592 7.11898C49.2514 5.07273 49.91 1.74843 51.7195 0.3752C53.5797 -1.03882 56.721 1.91158 58.0093 3.14205C61.1072 6.08566 62.2001 10.3277 63.2424 14.2095C64.1543 17.6017 64.8926 21.0348 65.3124 24.4339C65.6019 26.8269 66.5646 29.7637 66.029 32.2246C64.0504 36.6637 50.4022 39.7706 44.098 39.7026C42.9399 39.689 41.7167 39.9269 41.2679 38.7236C41.2534 38.6829 41.239 38.6353 41.2245 38.5877H41.2317Z" fill="white"/>
</svg>
